<svg viewBox="0 0 24 24" xmlns="http://www.w3.org/2000/svg">
    <path d="M.045 18.02c.072-.116.187-.124.348-.022 3.636 2.11 7.594 3.166 11.87 3.166 2.852 0 5.668-.533 8.447-1.595 2.779-1.062 5.12-2.524 7.025-4.384.151-.151.296-.151.439 0 .143.151.143.296 0 .439-1.905 2.146-4.285 3.823-7.139 5.033C18.281 21.869 15.018 22.5 11.456 22.5c-4.614 0-8.436-1.05-11.466-3.15-.187-.129-.2-.309-.039-.463z" fill="#FF9900"/>
    <path d="M20.954 15.85C19.36 17.442 16.936 18.238 13.683 18.238c-3.253 0-5.677-.796-7.271-2.388-.187-.143-.187-.296 0-.439.143-.187.296-.187.439 0 1.423 1.281 3.542 1.922 6.356 1.922 2.814 0 4.933-.641 6.356-1.922.143-.187.296-.187.439 0 .187.143.187.296-.048.439z" fill="#FF9900"/>
</svg>