<svg viewBox="0 0 24 24" xmlns="http://www.w3.org/2000/svg">
    <path d="M12 0C5.374 0 0 5.374 0 12s5.374 12 12 12 12-5.374 12-12S18.626 0 12 0zm8.2 5.4c1.8 2.4 2.6 5.2 2.7 8.3-2.7-.6-5.3-.6-7.8-.1.3-.8.6-1.6.8-2.4 2.9-1.2 5.2-3.4 6.3-5.8zm-1.1-1.1c-.9 2.1-2.9 4-5.5 5.1-.6-1.1-1.2-2.2-1.9-3.3 2.4-1 4.8-1.2 7.4-1.8zM12 2.2c1.9 0 3.6.6 5.1 1.6-2.4.5-4.6.7-6.8 1.6.6 1 1.2 2.1 1.8 3.1-2.1.8-3.9 2.4-4.8 4.4-.8-1.4-1.3-3.1-1.3-4.9 0-3.2 2.2-5.8 6-5.8zm-6.8 8.1c.1 1.5.6 2.9 1.3 4.1-.9-.2-1.9-.3-2.9-.3-1.4 0-2.8.2-4.1.6.4-2.1 1.4-4 2.9-5.4.9.3 1.9.6 2.8 1zm-.7 6.5c1.1-.3 2.3-.5 3.5-.5.8 0 1.6.1 2.4.2-.4 1.8-1.2 3.4-2.4 4.7-1.5-1.2-2.7-2.7-3.5-4.4zm5.5 5.2c.9-1.1 1.5-2.4 1.8-3.8 1.9.4 3.8.3 5.6-.1-.8 2.1-2.4 3.8-4.4 4.8-.9-.3-1.9-.6-3-.9z" fill="#EA4C89"/>
</svg>